# xmcd
#
# Track frame offsets:
#	150
#	11448
#	22971
#	32919
#	45417
#	58140
#	70338
#	82686
#	92559
#	104457
#	114555
#	127728
#	138051
#	146874
#	157572
#	169620
#	180768
#	193716
#	206589
#	217812
#	228960
#	241308
#	251781
#	263979
#	273327
#
# Disc length: 3776 seconds
#
# Revision: 1
# Processed by: cddbd v1.5.2PL0 Copyright (c) Steve Scherf et al.
# Submitted via: audiograbber 1.83.01
#
DISCID=420ebe19
DTITLE=Various Artist - Country Love Songs
DYEAR=2009
DGENRE=Country
TTITLE0=Young Love - Sonny James
TTITLE1=The Story of My Life - Marty Robbins
TTITLE2=Ballad of a Teenage Queen - Johnny Cash
TTITLE3=You and Me - Kitty Wells and Red Foley
TTITLE4=Fraulein - Bobby Helms
TTITLE5=Love Me Tender - Elvis Presley
TTITLE6=You're Still Mine - Faron Young
TTITLE7=You Are the One - Carl Smith
TTITLE8=Marriage Vow - Hank Snow
TTITLE9=Honeycomb - Jimmie Rodgers
TTITLE10=Hey, Good Lookin' - Hank Williams
TTITLE11=Give Me More More More of Your Kisses - Lefty Frizzell
TTITLE12=You're the Reason I'm in Love - Sonny James
TTITLE13=She Was Only Seventeen (He Was One Year More) - Marty Robbins
TTITLE14=You're the Nearest Thing to Heaven - Johnny Cash
TTITLE15=Searching (For Someone Like You) - Kitty Wells
TTITLE16=My Special Angel - Bobby Helms
TTITLE17=Playing for Keeps - Elvis Presley
TTITLE18=With This Ring I Thee Wed - Hank Snow
TTITLE19=According to My Heart - Jim Reeves
TTITLE20=Have I Told You Lately (That I Love You) - Gene Autry
TTITLE21=Kisses Sweeter Than Wine - Jimmie Rodgers
TTITLE22=Run Boy - Ray Price
TTITLE23=Cause I Love You - Webb Pierce
TTITLE24=Stairway Of Love - Marty Robbins
EXTD=Various Artist - Country Love Songs 2009\nMusic World, PO Box 44-162 Pt C
EXTD=hevalier, Auckland 1246, NZ\n@ V and H HOLDINGS PTY LTD\n9 418212 009659
EXTT0=
EXTT1=
EXTT2=
EXTT3=
EXTT4=
EXTT5=
EXTT6=
EXTT7=
EXTT8=
EXTT9=
EXTT10=
EXTT11=
EXTT12=
EXTT13=
EXTT14=
EXTT15=
EXTT16=
EXTT17=
EXTT18=
EXTT19=
EXTT20=
EXTT21=
EXTT22=
EXTT23=
EXTT24=
PLAYORDER=
